<mxfile host="app.diagrams.net" agent="Mozilla/5.0 (Macintosh; Intel Mac OS X 10_15_7) AppleWebKit/605.1.15 (KHTML, like Gecko) Version/18.6 Safari/605.1.15" version="28.1.2">
  <diagram name="Page-1" id="6eluWgzYQhiuT8Peeyo0">
    <mxGraphModel dx="1415" dy="942" grid="1" gridSize="10" guides="1" tooltips="1" connect="1" arrows="1" fold="1" page="1" pageScale="1" pageWidth="827" pageHeight="1169" math="0" shadow="0">
      <root>
        <mxCell id="0" />
        <mxCell id="1" parent="0" />
        <mxCell id="YcRq7a_YSYb15VPCzJH_-1" value="" style="rounded=0;whiteSpace=wrap;html=1;fillColor=light-dark(#FFFFFF,#FFFFFF);" vertex="1" parent="1">
          <mxGeometry x="30" y="65" width="780" height="520" as="geometry" />
        </mxCell>
        <mxCell id="YcRq7a_YSYb15VPCzJH_-2" value="" style="rounded=0;whiteSpace=wrap;html=1;" vertex="1" parent="1">
          <mxGeometry x="30" y="65" width="780" height="55" as="geometry" />
        </mxCell>
        <mxCell id="YcRq7a_YSYb15VPCzJH_-3" value="Planning" style="rounded=0;whiteSpace=wrap;html=1;fillColor=light-dark(#FFFFFF,#FF981C);" vertex="1" parent="1">
          <mxGeometry x="180" y="78.75" width="70" height="27.5" as="geometry" />
        </mxCell>
        <mxCell id="YcRq7a_YSYb15VPCzJH_-4" value="Flight Plans" style="rounded=0;whiteSpace=wrap;html=1;fillColor=light-dark(#FFFFFF,#635050);" vertex="1" parent="1">
          <mxGeometry x="100" y="78.75" width="70" height="27.5" as="geometry" />
        </mxCell>
        <mxCell id="YcRq7a_YSYb15VPCzJH_-5" value="Weather" style="rounded=0;whiteSpace=wrap;html=1;fillColor=light-dark(#FFFFFF,#635050);" vertex="1" parent="1">
          <mxGeometry x="344" y="78.75" width="70" height="27.5" as="geometry" />
        </mxCell>
        <mxCell id="YcRq7a_YSYb15VPCzJH_-6" value="Terminal" style="rounded=0;whiteSpace=wrap;html=1;fillColor=light-dark(#FFFFFF,#635050);" vertex="1" parent="1">
          <mxGeometry x="260" y="78.75" width="70" height="27.5" as="geometry" />
        </mxCell>
        <mxCell id="YcRq7a_YSYb15VPCzJH_-7" value="Text" style="rounded=0;whiteSpace=wrap;html=1;fillColor=light-dark(#FFFFFF,#635050);" vertex="1" parent="1">
          <mxGeometry x="430" y="78.75" width="70" height="27.5" as="geometry" />
        </mxCell>
        <mxCell id="YcRq7a_YSYb15VPCzJH_-8" value="" style="rounded=0;whiteSpace=wrap;html=1;" vertex="1" parent="1">
          <mxGeometry x="40" y="140" width="110" height="50" as="geometry" />
        </mxCell>
      </root>
    </mxGraphModel>
  </diagram>
</mxfile>
